<svg aria-hidden="true" style="position: absolute; width: 0; height: 0; overflow: hidden;" version="1.1" xmlns="http://www.w3.org/2000/svg" xmlns:xlink="http://www.w3.org/1999/xlink">
<defs>
<symbol id="icon-airplay" viewBox="0 0 18 18">
<path d="M16 1h-14c-0.553 0-1 0.447-1 1v10c0 0.553 0.447 1 1 1h3v-2h-2v-8h12v8h-2v2h3c0.553 0 1-0.447 1-1v-10c0-0.553-0.447-1-1-1v0z"></path>
<path d="M4 17h10l-5-6z"></path>
</symbol>
<symbol id="icon-captions-off" viewBox="0 0 18 18">
<path d="M1 1h16c0.6 0 1 0.4 1 1v11c0 0.6-0.4 1-1 1h-4.6l-2.7 2.7c-0.2 0.2-0.4 0.3-0.7 0.3s-0.5-0.1-0.7-0.3l-2.7-2.7h-4.6c-0.6 0-1-0.4-1-1v-11c0-0.6 0.4-1 1-1zM5.52 11.15c1.99 0 3.010-1.32 3.28-2.41l-1.29-0.39c-0.19 0.66-0.78 1.45-1.99 1.45-1.14 0-2.2-0.83-2.2-2.34 0-1.61 1.12-2.37 2.18-2.37 1.23 0 1.78 0.75 1.95 1.43l1.3-0.41c-0.28-1.15-1.29-2.35-3.25-2.35-1.9 0-3.61 1.44-3.61 3.7s1.65 3.69 3.63 3.69zM13.090 11.15c1.99 0 3.010-1.32 3.28-2.41l-1.29-0.39c-0.19 0.66-0.78 1.45-1.99 1.45-1.14 0-2.2-0.83-2.2-2.34 0-1.61 1.12-2.37 2.18-2.37 1.23 0 1.78 0.75 1.95 1.43l1.3-0.41c-0.28-1.15-1.29-2.35-3.25-2.35-1.9 0-3.61 1.44-3.61 3.7s1.65 3.69 3.63 3.69z"></path>
</symbol>
<symbol id="icon-captions-on" viewBox="0 0 18 18">
<path d="M1 1h16c0.6 0 1 0.4 1 1v11c0 0.6-0.4 1-1 1h-4.6l-2.7 2.7c-0.2 0.2-0.4 0.3-0.7 0.3s-0.5-0.1-0.7-0.3l-2.7-2.7h-4.6c-0.6 0-1-0.4-1-1v-11c0-0.6 0.4-1 1-1zM5.52 11.15c1.99 0 3.010-1.32 3.28-2.41l-1.29-0.39c-0.19 0.66-0.78 1.45-1.99 1.45-1.14 0-2.2-0.83-2.2-2.34 0-1.61 1.12-2.37 2.18-2.37 1.23 0 1.78 0.75 1.95 1.43l1.3-0.41c-0.28-1.15-1.29-2.35-3.25-2.35-1.9 0-3.61 1.44-3.61 3.7s1.65 3.69 3.63 3.69zM13.090 11.15c1.99 0 3.010-1.32 3.28-2.41l-1.29-0.39c-0.19 0.66-0.78 1.45-1.99 1.45-1.14 0-2.2-0.83-2.2-2.34 0-1.61 1.12-2.37 2.18-2.37 1.23 0 1.78 0.75 1.95 1.43l1.3-0.41c-0.28-1.15-1.29-2.35-3.25-2.35-1.9 0-3.61 1.44-3.61 3.7s1.65 3.69 3.63 3.69z"></path>
</symbol>
<symbol id="icon-download" viewBox="0 0 18 18">
<path d="M9 13c0.3 0 0.5-0.1 0.7-0.3l5.7-5.7-1.4-1.4-4 4v-8.6h-2v8.6l-4-4-1.4 1.4 5.7 5.7c0.2 0.2 0.4 0.3 0.7 0.3z"></path>
<path d="M2 15h14v2h-14v-2z"></path>
</symbol>
<symbol id="icon-enter-fullscreen" viewBox="0 0 18 18">
<path fill="#fff" style="fill: var(--color1, #fff)" d="M2.571 11.571h-2.571v6.429h6.429v-2.571h-3.857zM0 6.429h2.571v-3.857h3.857v-2.571h-6.429zM15.429 15.429h-3.857v2.571h6.429v-6.429h-2.571zM11.571 0v2.571h3.857v3.857h2.571v-6.429z"></path>
</symbol>
<symbol id="icon-exit-fullscreen" viewBox="0 0 18 18">
<path fill="#fff" style="fill: var(--color1, #fff)" d="M2.571 11.571h-2.571v6.429h6.429v-2.571h-3.857zM0 6.429h2.571v-3.857h3.857v-2.571h-6.429zM15.429 15.429h-3.857v2.571h6.429v-6.429h-2.571zM11.571 0v2.571h3.857v3.857h2.571v-6.429z"></path>
</symbol>
<symbol id="icon-fast-forward" viewBox="0 0 18 18">
<path d="M7.875 7.171l-7.875-6.171v16l7.875-6.171v6.171l10.125-8-10.125-8z"></path>
</symbol>
<symbol id="icon-logo-vimeo" viewBox="0 0 18 18">
<path d="M17 5.3c-0.1 1.6-1.2 3.7-3.3 6.4-2.2 2.8-4 4.2-5.5 4.2-0.9 0-1.7-0.9-2.4-2.6-0.8-2.4-1.4-7.3-2.8-7.3-0.1 0-0.5 0.3-1.2 0.8l-0.8-1c0.8-0.7 3.5-3.4 4.7-3.5s2 0.7 2.3 2.5c0.3 2 0.8 6.1 1.8 6.1 0.9 0 2.5-3.4 2.6-4 0.1-0.9-0.3-1.9-2.3-1.1 0.8-2.6 2.3-3.8 4.5-3.8 1.7 0.1 2.5 1.2 2.4 3.3z"></path>
</symbol>
<symbol id="icon-logo-youtube" viewBox="0 0 18 18">
<path d="M16.8 5.8c-0.2-1.3-0.8-2.2-2.2-2.4-2.2-0.4-5.6-0.4-5.6-0.4s-3.4 0-5.6 0.4c-1.4 0.2-2.1 1.1-2.2 2.4-0.2 1.3-0.2 3.2-0.2 3.2s0 1.9 0.2 3.2c0.2 1.3 0.8 2.2 2.2 2.4 2.2 0.4 5.6 0.4 5.6 0.4s3.4 0 5.6-0.4c1.4-0.3 2-1.1 2.2-2.4s0.2-3.2 0.2-3.2c0 0 0-1.9-0.2-3.2zM7 12v-6l5 3-5 3z"></path>
</symbol>
<symbol id="icon-muted" viewBox="0 0 18 18">
<path d="M12.4 12.5l2.1-2.1 2.1 2.1 1.4-1.4-2.1-2.1 2.1-2.1-1.4-1.4-2.1 2.1-2.1-2.1-1.4 1.4 2.1 2.1-2.1 2.1z"></path>
<path d="M3.786 6.008h-3.071c-0.429 0-0.714 0.301-0.714 0.752v4.512c0 0.451 0.286 0.752 0.714 0.752h3.071l4.071 3.858c0.5 0.301 1.143 0 1.143-0.602v-12.528c0-0.602-0.643-0.978-1.143-0.602l-4.071 3.858z"></path>
</symbol>
<symbol id="icon-pause" viewBox="0 0 18 18">
<path d="M6 1h-3c-0.6 0-1 0.4-1 1v14c0 0.6 0.4 1 1 1h3c0.6 0 1-0.4 1-1v-14c0-0.6-0.4-1-1-1v0z"></path>
<path d="M12 1c-0.6 0-1 0.4-1 1v14c0 0.6 0.4 1 1 1h3c0.6 0 1-0.4 1-1v-14c0-0.6-0.4-1-1-1h-3z"></path>
</symbol>
<symbol id="icon-pip" viewBox="0 0 18 18">
<path d="M13.293 3.293l-6.271 6.271 1.414 1.414 6.271-6.271 2.293 2.293v-6h-6z"></path>
<path d="M13 15h-10v-10h5v-2h-6c-0.552 0-1 0.448-1 1v12c0 0.552 0.448 1 1 1h12c0.552 0 1-0.448 1-1v-6h-2v5z"></path>
</symbol>
<symbol id="icon-play" viewBox="0 0 18 18">
<path fill="#fff" style="fill: var(--color1, #fff)" d="M11.97 8.648l-3.738-2.717c-0.073-0.054-0.166-0.087-0.266-0.087-0.248 0-0.449 0.2-0.45 0.448v5.435c0 0 0 0.001 0 0.001 0 0.174 0.099 0.325 0.244 0.4l0.003 0.001c0.059 0.031 0.13 0.049 0.204 0.049 0.001 0 0.002 0 0.002 0h-0c0.1-0 0.192-0.033 0.266-0.088l-0.001 0.001 3.738-2.715c0.114-0.082 0.187-0.214 0.187-0.364s-0.073-0.282-0.186-0.363l-0.001-0.001z"></path>
<path fill="#fff" style="fill: var(--color1, #fff)" d="M9.002-0.002c-4.97 0-9 4.030-9 9s4.030 9 9 9c4.97 0 8.999-4.028 9-8.998v-0c0-0.001 0-0.001 0-0.002 0-4.971-4.030-9.001-9.001-9.001v0zM9.002 16.497c-0 0-0.001 0-0.001 0-4.141 0-7.498-3.357-7.498-7.498s3.357-7.498 7.498-7.498c4.141 0 7.498 3.357 7.498 7.498 0 0.001 0 0.002 0 0.003v-0c-0 4.14-3.357 7.496-7.497 7.496v0z"></path>
</symbol>
<symbol id="icon-restart" viewBox="0 0 18 18">
<path d="M9.7 1.2l0.7 6.4 2.1-2.1c1.9 1.9 1.9 5.1 0 7-0.9 1-2.2 1.5-3.5 1.5s-2.6-0.5-3.5-1.5c-1.9-1.9-1.9-5.1 0-7 0.6-0.6 1.4-1.1 2.3-1.3l-0.6-1.9c-1.2 0.3-2.3 0.9-3.2 1.8-2.7 2.7-2.7 7.1 0 9.9 1.3 1.3 3.1 2 4.9 2 1.9 0 3.6-0.7 4.9-2 2.7-2.7 2.7-7.1 0-9.9l2.2-2.2-6.3-0.7z"></path>
</symbol>
<symbol id="icon-rewind" viewBox="0 0 18 18">
<path d="M10.125 1l-10.125 8 10.125 8v-6.171l7.875 6.171v-16l-7.875 6.171z"></path>
</symbol>
<symbol id="icon-settings" viewBox="0 0 18 18">
<path d="M16.135 7.784c-1.303-0.326-1.921-1.818-1.23-2.969 0.322-0.536 0.225-0.998-0.094-1.316l-0.31-0.31c-0.318-0.318-0.78-0.415-1.316-0.094-1.152 0.691-2.644 0.073-2.969-1.23-0.151-0.607-0.547-0.865-0.997-0.865h-0.438c-0.45 0-0.845 0.258-0.997 0.865-0.326 1.303-1.818 1.921-2.969 1.23-0.536-0.322-0.999-0.225-1.317 0.093l-0.31 0.31c-0.318 0.318-0.415 0.781-0.093 1.317 0.691 1.152 0.073 2.644-1.23 2.969-0.605 0.151-0.865 0.546-0.865 0.997v0.438c0 0.45 0.258 0.845 0.865 0.997 1.303 0.326 1.921 1.818 1.23 2.969-0.322 0.536-0.225 0.998 0.094 1.316l0.31 0.31c0.319 0.319 0.782 0.415 1.316 0.094 1.152-0.691 2.644-0.073 2.969 1.23 0.151 0.607 0.547 0.865 0.997 0.865h0.438c0.45 0 0.845-0.258 0.997-0.865 0.326-1.303 1.818-1.921 2.969-1.23 0.535 0.321 0.997 0.225 1.316-0.094l0.31-0.31c0.318-0.318 0.415-0.781 0.094-1.316-0.691-1.152-0.073-2.644 1.23-2.969 0.607-0.151 0.865-0.547 0.865-0.997v-0.438c0-0.451-0.26-0.846-0.865-0.997v0zM9 12c-1.657 0-3-1.343-3-3s1.343-3 3-3c1.657 0 3 1.343 3 3s-1.343 3-3 3v0z"></path>
</symbol>
<symbol id="icon-volume" viewBox="0 0 18 18">
<path fill="#fff" style="fill: var(--color1, #fff)" d="M9.44 1.805c-0.106-0.047-0.229-0.074-0.359-0.074-0.206 0-0.396 0.069-0.548 0.185l0.002-0.002-4.326 3.421h-3.304c-0.5 0-0.905 0.405-0.905 0.905v0 5.43c0 0.5 0.405 0.905 0.905 0.905h3.304l4.281 3.421c0.152 0.123 0.348 0.198 0.56 0.199h0c0.004 0 0.008 0 0.013 0 0.137 0 0.267-0.034 0.381-0.093l-0.005 0.002c0.308-0.149 0.516-0.458 0.516-0.817v-12.669c-0.001-0.358-0.209-0.666-0.51-0.812l-0.005-0.002zM8.145 13.407l-3.059-2.444c-0.152-0.123-0.348-0.198-0.56-0.199h-2.715v-3.619h2.715c0.213-0.001 0.409-0.076 0.562-0.201l-0.002 0.001 3.059-2.444zM15.983 3.833c-0.162-0.153-0.382-0.247-0.623-0.247-0.502 0-0.909 0.407-0.909 0.909 0 0.241 0.094 0.461 0.247 0.623l-0-0c0.984 0.983 1.592 2.341 1.592 3.842 0 1.666-0.75 3.156-1.93 4.152l-0.008 0.007c-0.198 0.167-0.323 0.415-0.323 0.692 0 0.498 0.404 0.903 0.903 0.903 0.221 0 0.424-0.079 0.581-0.211l-0.001 0.001c1.589-1.337 2.592-3.327 2.592-5.551 0-1.999-0.81-3.81-2.121-5.12v0zM13.421 6.394c-0.162-0.153-0.382-0.247-0.623-0.247-0.502 0-0.909 0.407-0.909 0.909 0 0.241 0.094 0.461 0.247 0.623l-0-0c0.331 0.327 0.535 0.78 0.535 1.281 0 0.553-0.249 1.047-0.641 1.377l-0.003 0.002c-0.198 0.167-0.323 0.415-0.323 0.692 0 0.498 0.404 0.903 0.903 0.903 0.221 0 0.424-0.079 0.581-0.211l-0.001 0.001c0.792-0.668 1.292-1.66 1.294-2.769v-0c-0.005-0.999-0.408-1.903-1.058-2.562l0 0z"></path>
</symbol>
</defs>
</svg>
