<svg xmlns="http://www.w3.org/2000/svg" width="20.364" height="28" viewBox="0 0 20.364 28">
    <defs>
        <linearGradient id="linear-gradient" x1=".5" x2=".5" y2="1" gradientUnits="objectBoundingBox">
            <stop offset=".067" stop-color="#e83866"/>
            <stop offset=".801" stop-color="#e57a3c"/>
        </linearGradient>
    </defs>
    <path id="Path_1035" fill="url(#linear-gradient)" d="M14.182 18.818a5.091 5.091 0 0 0 5.091-5.091V6.091a5.091 5.091 0 1 0-10.182 0v7.636a5.091 5.091 0 0 0 5.091 5.091zM11.636 6.091a2.545 2.545 0 1 1 5.091 0v7.636a2.545 2.545 0 1 1-5.091 0zm12.727 7.636a1.273 1.273 0 0 0-2.545 0 7.636 7.636 0 1 1-15.273 0 1.273 1.273 0 0 0-2.545 0 10.183 10.183 0 0 0 8.909 10.093v2.635h-2.545a1.273 1.273 0 1 0 0 2.545H18a1.273 1.273 0 0 0 0-2.545h-2.545V23.82a10.183 10.183 0 0 0 8.909-10.093z" data-name="Path 1035" transform="translate(-4 -1)"/>
</svg>
