<svg xmlns="http://www.w3.org/2000/svg" width="31.887" height="26.157" viewBox="0 0 31.887 26.157">
    <defs>
        <style>
            .cls-1{fill:#fff}
        </style>
    </defs>
    <g id="shopping-cart_2_" data-name="shopping-cart (2)" transform="translate(0 -46)">
        <g id="Group_1387" data-name="Group 1387" transform="translate(0 46)">
            <g id="Group_1386" data-name="Group 1386">
                <path id="Path_1056" d="M31.638 49.731a1.245 1.245 0 0 0-1-.5H7.18L6.5 46.9a1.245 1.245 0 0 0-1.2-.9H1.246a1.246 1.246 0 0 0 0 2.491h3.121l4.969 16.973a1.246 1.246 0 0 0 1.2.9h15.82a1.245 1.245 0 0 0 1.2-.9l4.285-14.637a1.246 1.246 0 0 0-.203-1.096zm-6.215 14.138H11.464L7.909 51.723h21.07z" class="cls-1" data-name="Path 1056" transform="translate(0 -46)"/>
            </g>
        </g>
        <g id="Group_1389" data-name="Group 1389" transform="translate(13.408 68.794)">
            <g id="Group_1388" data-name="Group 1388">
                <circle id="Ellipse_5" cx="1.682" cy="1.682" r="1.682" class="cls-1" data-name="Ellipse 5"/>
            </g>
        </g>
        <g id="Group_1391" data-name="Group 1391" transform="translate(20.117 68.794)">
            <g id="Group_1390" data-name="Group 1390">
                <circle id="Ellipse_6" cx="1.682" cy="1.682" r="1.682" class="cls-1" data-name="Ellipse 6"/>
            </g>
        </g>
    </g>
</svg>
