<svg xmlns="http://www.w3.org/2000/svg" width="23.417" height="23.417" viewBox="0 0 23.417 23.417">
    <path id="Path_989" fill="#a8b6d3" d="M24.129 2H3.288A1.287 1.287 0 0 0 2 3.288v20.841a1.287 1.287 0 0 0 1.288 1.288H14.5v-9.074h-3.04V12.83h3.04V10.2a4.261 4.261 0 0 1 3.808-4.672 4.17 4.17 0 0 1 .735-.012 23.6 23.6 0 0 1 2.728.141v3.157h-1.857c-1.475 0-1.756.7-1.756 1.721V12.8h3.512l-.457 3.513h-3.055v9.109h5.971a1.287 1.287 0 0 0 1.288-1.288V3.288A1.287 1.287 0 0 0 24.129 2z" data-name="Path 989" transform="translate(-2 -2)"/>
</svg>
