<svg xmlns="http://www.w3.org/2000/svg" width="24.153" height="28.105" viewBox="0 0 24.153 28.105">
    <defs>
        <linearGradient id="linear-gradient" x2="1" y2="1" gradientUnits="objectBoundingBox">
            <stop offset="0" stop-color="#e83866"/>
            <stop offset=".067" stop-color="#e83866"/>
            <stop offset=".801" stop-color="#e57a3c"/>
            <stop offset="1" stop-color="#e57a3c"/>
        </linearGradient>
    </defs>
    <g id="file" transform="translate(-36)">
        <g id="Group_1383" data-name="Group 1383" transform="translate(36)">
            <path id="Path_1055" fill="url(#linear-gradient)" d="M57.408 0H44.339a1.108 1.108 0 0 0-.768.313L36.33 7.4a1.107 1.107 0 0 0-.33.784v17.21a2.731 2.731 0 0 0 2.745 2.71h18.663a2.731 2.731 0 0 0 2.745-2.71V2.71A2.731 2.731 0 0 0 57.408 0zM43.241 3.71v3.381h-3.453zm14.716 21.684a.533.533 0 0 1-.549.515H38.745a.533.533 0 0 1-.549-.515V9.286h6.143a1.1 1.1 0 0 0 1.1-1.1V2.2h11.969a.533.533 0 0 1 .549.515z" data-name="Path 1055" transform="translate(-36)"/>
        </g>
    </g>
</svg>
