<svg xmlns="http://www.w3.org/2000/svg" width="29.17" height="23.746" viewBox="0 0 29.17 23.746">
    <path id="Path_990" fill="#a8b6d3" d="M39.123 5.3a12.4 12.4 0 0 1-3.442.933 6.019 6.019 0 0 0 2.64-3.311 11.978 11.978 0 0 1-3.807 1.458A5.98 5.98 0 0 0 24.3 9.835a16.984 16.984 0 0 1-12.32-6.257 6.084 6.084 0 0 0-.8 3.019 5.972 5.972 0 0 0 2.654 4.973 5.917 5.917 0 0 1-2.713-.744v.074a5.982 5.982 0 0 0 4.813 5.834 5.8 5.8 0 0 1-1.6.248 7.258 7.258 0 0 1-1.123-.1 6 6 0 0 0 5.586 4.142 11.987 11.987 0 0 1-7.38 2.567 11.616 11.616 0 0 1-1.464-.091A17.051 17.051 0 0 0 36.206 9.472V8.391A12.3 12.3 0 0 0 39.123 5.3z" data-name="Path 990" transform="translate(-9.953 -2.454)"/>
</svg>
